<?xml version="1.0" encoding="UTF-8"?>
<svg width="17px" height="17px" viewBox="0 0 17 17" version="1.1" xmlns="http://www.w3.org/2000/svg" xmlns:xlink="http://www.w3.org/1999/xlink">
    <!-- Generator: Sketch 57.1 (83088) - https://sketch.com -->
    <title>Group 3</title>
    <desc>Created with Sketch.</desc>
    <defs>
        <path d="M1,0 L16,0 C16.5522847,-1.01453063e-16 17,0.44771525 17,1 L17,16 C17,16.5522847 16.5522847,17 16,17 L1,17 C0.44771525,17 6.76353751e-17,16.5522847 0,16 L0,1 C-6.76353751e-17,0.44771525 0.44771525,1.01453063e-16 1,0 Z" id="path-1"></path>
    </defs>
    <g id="Pages" stroke="none" stroke-width="1" fill="none" fill-rule="evenodd">
        <g id="11_desktop_alt_white_search" transform="translate(-128.000000, -659.000000)">
            <g id="Group-3" transform="translate(128.000000, 659.000000)">
                <mask id="mask-2" fill="white">
                    <use xlink:href="#path-1"></use>
                </mask>
                <use id="Clip-2" fill="#EE3625" xlink:href="#path-1"></use>
                <path d="M13.3283401,11.0480058 C13.3283401,12.8673525 11.8538906,14.3426406 10.034497,14.3426406 L7.44763574,14.3426406 L7.44763574,11.7922242 L10.034497,11.7922242 C10.4438715,11.7922242 10.7787346,11.4586846 10.7787346,11.0480058 L10.7787346,8.24381881 L13.3283401,8.24381881 L13.3283401,11.0480058 Z M6.22214201,5.95067935 L6.22214201,8.75618119 L3.67209818,8.75618119 L3.67209818,5.95067935 C3.67209818,4.13133266 5.14610942,2.65735942 6.96681792,2.65735942 L9.55192595,2.65735942 L9.55192595,5.20733751 L6.96681792,5.20733751 C6.5556902,5.20733751 6.22214201,5.54131539 6.22214201,5.95067935 L6.22214201,5.95067935 Z M1.06244521,0 C0.475558191,0 0,0.47554593 0,1.06241782 L0,15.9375822 C0,16.5244541 0.475558191,17 1.06244521,17 L15.9379931,17 C16.5244418,17 17,16.5244541 17,15.9375822 L17,1.06241782 C17,0.47554593 16.5244418,0 15.9379931,0 L1.06244521,0 Z" id="Fill-1" fill="#EE3625" mask="url(#mask-2)"></path>
            </g>
        </g>
    </g>
</svg>